<svg width="187" height="319" viewBox="0 0 187 319" fill="none" xmlns="http://www.w3.org/2000/svg">
<path d="M91.1805 5.11424C93.1705 2.52346 97.0699 2.50581 99.0833 5.07847L102.312 9.20408L107.914 18.4082L115.518 35.2156L122.454 54.1573L125.922 69.6309L128.457 84.8376L120.987 88.039V88.039C113.464 90.1632 105.684 91.2404 97.8669 91.2404H95.3756L81.7696 90.5735L70.031 88.039L60.4268 83.9038L63.7616 67.2298L68.5637 50.4223L74.5664 33.7483L82.4365 18.4082L88.039 9.20408L91.1805 5.11424Z" fill="#EC6565"/>
<path d="M139.128 183.015L159.537 209.293L165.566 221.884C171.585 234.455 176.53 247.512 180.347 260.916V260.916L184.615 279.724L186.883 318.008L180.427 295.972C178.086 287.98 174.151 280.544 168.859 274.112V274.112C162.664 266.584 155.643 259.775 147.927 253.815L140.196 247.843L139.128 183.015Z" fill="#EC6565"/>
<path d="M47.7544 183.148L27.3453 209.426L21.3165 222.018C15.2976 234.588 10.3532 247.645 6.53613 261.049V261.049L2.26757 279.857L-0.000103712 318.141L6.45562 296.106C8.79719 288.113 12.7323 280.677 18.0239 274.246V274.246C24.2186 266.717 31.24 259.908 38.956 253.948L46.6873 247.977L47.7544 183.148Z" fill="#EC6565"/>
<path d="M59.7597 83.6367L60.3717 83.8635C82.3268 92.0013 106.412 92.3451 128.59 84.8373V84.8373V84.8373C138.525 146.749 142.138 209.743 139.395 272.387V272.387H46.2871V272.387C46.2871 209.505 50.8669 145.887 59.7597 83.6367V83.6367Z" fill="#F1F1F1"/>
<path d="M46.4207 272.521L47.0834 272.468C77.8059 270.017 108.676 270.035 139.395 272.521V272.521V272.521C146.397 280.054 152.501 288.375 157.585 297.315L157.67 297.465V297.465C115.743 311.007 70.6567 311.27 28.5744 298.218L26.145 297.465L26.4697 296.985C32.3775 288.252 39.0544 280.064 46.4207 272.521V272.521Z" fill="#6D6D6D"/>
<rect x="70.4312" y="106.714" width="48.0213" height="48.0213" rx="24.0106" fill="#5FAAEF"/>
</svg>
