<svg width="40" height="39" viewBox="0 0 40 39" fill="none" xmlns="http://www.w3.org/2000/svg">
<g clip-path="url(#clip0_207_26)">
<path d="M40 -0.5H0V39.5H40V-0.5Z" fill="#3AFF28"/>
<path d="M32.6192 25.5628C35.9675 18.5934 33.032 10.2292 26.0626 6.88096C19.0932 3.53268 10.729 6.46818 7.38076 13.4376C4.03249 20.407 6.96799 28.7711 13.9374 32.1194C20.9068 35.4677 29.2709 32.5322 32.6192 25.5628Z" fill="#20FF36"/>
<path d="M36.8173 22.7785L31.6555 25.4908L29.2031 19.9019" stroke="black" stroke-width="2"/>
<path d="M32.0002 24.5002C37.2689 12.7471 23.5007 1.65024 13.1349 9.29514L11.5005 10.5006" stroke="black" stroke-width="2"/>
<path d="M4 18.8269L8.201 14.7832L12.1142 19.4669" stroke="black" stroke-width="2"/>
<path d="M8.00054 15.5C4.89904 26.8918 17.1584 36.321 27.3729 30.4003L28.982 29.4676" stroke="black" stroke-width="2"/>
</g>
<defs>
<clipPath id="clip0_207_26">
<rect width="40" height="39" fill="white"/>
</clipPath>
</defs>
</svg>
